<?xml version="1.0" encoding="iso-8859-1"?>
<!-- Generator: Adobe Illustrator 18.1.1, SVG Export Plug-In . SVG Version: 6.00 Build 0)  -->
<svg xmlns="http://www.w3.org/2000/svg" xmlns:xlink="http://www.w3.org/1999/xlink" version="1.1" id="Capa_1" x="0px" y="0px" viewBox="0 0 33.889 33.889" style="enable-background:new 0 0 33.889 33.889;" xml:space="preserve" width="512px" height="512px">
<g>
	<path d="M9.036,10.132c0.914,0,1.651-0.664,1.651-1.483c0-0.821-0.737-1.484-1.651-1.484   c-0.909,0-1.648,0.663-1.648,1.484C7.388,9.469,8.127,10.132,9.036,10.132z" fill="#92683C"/>
	<ellipse cx="16.571" cy="4.875" rx="2.828" ry="2.544" fill="#92683C"/>
	<ellipse cx="24.734" cy="8.734" rx="1.649" ry="1.484" fill="#92683C"/>
	<rect x="6.358" y="26.469" width="20.426" height="5.09" fill="#92683C"/>
	<ellipse cx="31.062" cy="8.183" rx="2.827" ry="2.545" fill="#92683C"/>
	<path d="M5.657,8.276c0-1.408-1.266-2.544-2.831-2.544C1.269,5.731,0,6.868,0,8.276   c0,1.405,1.269,2.544,2.826,2.544C4.392,10.82,5.657,9.681,5.657,8.276z" fill="#92683C"/>
	<path d="M27.879,11.201l-3.873,3.485l0.326-3.552c0,0-0.533-0.801-1.229-0.152l-2.346,2.999L17.7,9.167   c0,0-0.842-0.859-2.263,0l-2.98,4.693l-2.021-2.878c0,0-0.517-0.817-1.167,0.051l0.213,3.873l-3.818-3.704   c0,0-1.18-0.477-1.743,0.67l2.466,13.579h20.362l3.395-13.23C30.144,12.22,29.763,10.471,27.879,11.201z" fill="#92683C"/>
</g>
<g>
</g>
<g>
</g>
<g>
</g>
<g>
</g>
<g>
</g>
<g>
</g>
<g>
</g>
<g>
</g>
<g>
</g>
<g>
</g>
<g>
</g>
<g>
</g>
<g>
</g>
<g>
</g>
<g>
</g>
</svg>
