<svg xmlns="http://www.w3.org/2000/svg" style="display: none;"><symbol id="crown-2" viewBox="0 0 267.5 267.5"><title>crown-2</title><path d="M256.975,100.34c0.041,0.736-0.013,1.485-0.198,2.229l-16.5,66c-0.832,3.325-3.812,5.663-7.238,5.681l-99,0.5 c-0.013,0-0.025,0-0.038,0H35c-3.444,0-6.445-2.346-7.277-5.688l-16.5-66.25c-0.19-0.764-0.245-1.534-0.197-2.289 C4.643,98.512,0,92.539,0,85.5c0-8.685,7.065-15.75,15.75-15.75S31.5,76.815,31.5,85.5c0,4.891-2.241,9.267-5.75,12.158 l20.658,20.814c5.221,5.261,12.466,8.277,19.878,8.277c8.764,0,17.12-4.162,22.382-11.135l33.95-44.984 C119.766,67.78,118,63.842,118,59.5c0-8.685,7.065-15.75,15.75-15.75s15.75,7.065,15.75,15.75c0,4.212-1.672,8.035-4.375,10.864 c0.009,0.012,0.02,0.022,0.029,0.035l33.704,45.108c5.26,7.04,13.646,11.243,22.435,11.243c7.48,0,14.514-2.913,19.803-8.203 l20.788-20.788C238.301,94.869,236,90.451,236,85.5c0-8.685,7.065-15.75,15.75-15.75s15.75,7.065,15.75,15.75 C267.5,92.351,263.095,98.178,256.975,100.34z M238.667,198.25c0-4.142-3.358-7.5-7.5-7.5h-194c-4.142,0-7.5,3.358-7.5,7.5v18 c0,4.142,3.358,7.5,7.5,7.5h194c4.142,0,7.5-3.358,7.5-7.5V198.25z" fill="#92683C"/></symbol><symbol id="crown-1" viewBox="0 0 33.889 33.889"><title>crown-1</title><path d="M9.036,10.132c0.914,0,1.651-0.664,1.651-1.483c0-0.821-0.737-1.484-1.651-1.484 c-0.909,0-1.648,0.663-1.648,1.484C7.388,9.469,8.127,10.132,9.036,10.132z" fill="#92683C"/><ellipse cx="16.571" cy="4.875" rx="2.828" ry="2.544" fill="#92683C"/><ellipse cx="24.734" cy="8.734" rx="1.649" ry="1.484" fill="#92683C"/><rect x="6.358" y="26.469" width="20.426" height="5.09" fill="#92683C"/><ellipse cx="31.062" cy="8.183" rx="2.827" ry="2.545" fill="#92683C"/><path d="M5.657,8.276c0-1.408-1.266-2.544-2.831-2.544C1.269,5.731,0,6.868,0,8.276 c0,1.405,1.269,2.544,2.826,2.544C4.392,10.82,5.657,9.681,5.657,8.276z" fill="#92683C"/><path d="M27.879,11.201l-3.873,3.485l0.326-3.552c0,0-0.533-0.801-1.229-0.152l-2.346,2.999L17.7,9.167 c0,0-0.842-0.859-2.263,0l-2.98,4.693l-2.021-2.878c0,0-0.517-0.817-1.167,0.051l0.213,3.873l-3.818-3.704 c0,0-1.18-0.477-1.743,0.67l2.466,13.579h20.362l3.395-13.23C30.144,12.22,29.763,10.471,27.879,11.201z" fill="#92683C"/></symbol><symbol id="crown" viewBox="0 0 261.695 261.695"><title>crown</title><path d="M211.735,230.103c0,4.142-3.358,7.5-7.5,7.5h-148c-4.142,0-7.5-3.358-7.5-7.5v-16c0-4.142,3.358-7.5,7.5-7.5h148 c4.142,0,7.5,3.358,7.5,7.5V230.103z M261.695,87.742c0-8.188-6.66-14.848-14.848-14.848S232,79.554,232,87.742 c0,2.667,0.716,5.165,1.952,7.33l-66.261,26.505l-25.44-50.879c7.985-4.083,13.468-12.389,13.468-21.956 c0-13.592-11.059-24.649-24.65-24.649s-24.649,11.058-24.649,24.649c0,9.567,5.482,17.872,13.467,21.956l-25.439,50.879L27.83,94.93 c1.185-2.132,1.865-4.581,1.865-7.188c0-8.188-6.66-14.848-14.848-14.848S0,79.554,0,87.742c0,6.016,3.602,11.197,8.758,13.527 l33.355,82.641c1.145,2.837,3.896,4.693,6.955,4.693h165c3.087,0,5.858-1.892,6.983-4.766l32.435-82.834 C258.346,98.561,261.695,93.541,261.695,87.742z" fill="#92683C"/></symbol></svg>